<?xml version="1.0" standalone="no"?>
<!DOCTYPE svg PUBLIC "-//W3C//DTD SVG 20010904//EN"
 "http://www.w3.org/TR/2001/REC-SVG-20010904/DTD/svg10.dtd">
<svg version="1.0" xmlns="http://www.w3.org/2000/svg"
 width="267.000000pt" height="267.000000pt" viewBox="0 0 267.000000 267.000000"
 preserveAspectRatio="xMidYMid meet">
<metadata>
Created by potrace 1.14, written by Peter Selinger 2001-2017
</metadata>
<g transform="translate(0.000000,267.000000) scale(0.100000,-0.100000)"
fill="#000000" stroke="none">
<path d="M1111 2654 c-473 -80 -878 -430 -1034 -894 -49 -149 -62 -232 -62
-425 0 -192 9 -257 62 -420 153 -474 569 -826 1062 -900 103 -15 263 -18 346
-5 33 5 76 11 95 14 81 12 223 60 327 112 380 187 645 539 727 964 20 103 15
418 -8 515 -62 268 -179 480 -365 665 -194 193 -386 299 -656 362 -116 27
-369 33 -494 12z"/>
</g>
</svg>
